Coordinates
version=1
nRows=50
nColumns=16
inDegrees=yes
endheader
time	shoulder_elv_r	shoulder_elv_l	elv_angle_r	elv_angle_l	elbow_flexion_r	elbow_flexion_l	shoulder_rot_r	shoulder_rot_l	pro_sup_r	pro_sup_l	hip_flexion_r	hip_flexion_l	knee_angle_r	knee_angle_l	lumbar_extension
0.000000	20.000000	20.000000	22.500000	22.500000	60.000000	60.000000	0.000000	0.000000	40.000000	40.000000	0.000000	0.000000	0.000000	0.000000	5.000000
0.040816	21.224490	21.224490	22.500000	22.500000	60.000000	60.000000	0.000000	0.000000	40.000000	40.000000	0.000000	0.000000	0.000000	0.000000	5.000000
0.081633	22.448980	22.448980	22.500000	22.500000	60.000000	60.000000	0.000000	0.000000	40.000000	40.000000	0.000000	0.000000	0.000000	0.000000	5.000000
0.122449	23.673469	23.673469	22.500000	22.500000	60.000000	60.000000	0.000000	0.000000	40.000000	40.000000	0.000000	0.000000	0.000000	0.000000	5.000000
0.163265	24.897959	24.897959	22.500000	22.500000	60.000000	60.000000	0.000000	0.000000	40.000000	40.000000	0.000000	0.000000	0.000000	0.000000	5.000000
0.204082	26.122449	26.122449	22.500000	22.500000	60.000000	60.000000	0.000000	0.000000	40.000000	40.000000	0.000000	0.000000	0.000000	0.000000	5.000000
0.244898	27.346939	27.346939	22.500000	22.500000	60.000000	60.000000	0.000000	0.000000	40.000000	40.000000	0.000000	0.000000	0.000000	0.000000	5.000000
0.285714	28.571429	28.571429	22.500000	22.500000	60.000000	60.000000	0.000000	0.000000	40.000000	40.000000	0.000000	0.000000	0.000000	0.000000	5.000000
0.326531	29.795918	29.795918	22.500000	22.500000	60.000000	60.000000	0.000000	0.000000	40.000000	40.000000	0.000000	0.000000	0.000000	0.000000	5.000000
0.367347	31.020408	31.020408	22.500000	22.500000	60.000000	60.000000	0.000000	0.000000	40.000000	40.000000	0.000000	0.000000	0.000000	0.000000	5.000000
0.408163	32.244898	32.244898	22.500000	22.500000	60.000000	60.000000	0.000000	0.000000	40.000000	40.000000	0.000000	0.000000	0.000000	0.000000	5.000000
0.448980	33.469388	33.469388	22.500000	22.500000	60.000000	60.000000	0.000000	0.000000	40.000000	40.000000	0.000000	0.000000	0.000000	0.000000	5.000000
0.489796	34.693878	34.693878	22.500000	22.500000	60.000000	60.000000	0.000000	0.000000	40.000000	40.000000	0.000000	0.000000	0.000000	0.000000	5.000000
0.530612	35.918367	35.918367	22.500000	22.500000	60.000000	60.000000	0.000000	0.000000	40.000000	40.000000	0.000000	0.000000	0.000000	0.000000	5.000000
0.571429	37.142857	37.142857	22.500000	22.500000	60.000000	60.000000	0.000000	0.000000	40.000000	40.000000	0.000000	0.000000	0.000000	0.000000	5.000000
0.612245	38.367347	38.367347	22.500000	22.500000	60.000000	60.000000	0.000000	0.000000	40.000000	40.000000	0.000000	0.000000	0.000000	0.000000	5.000000
0.653061	39.591837	39.591837	22.500000	22.500000	60.000000	60.000000	0.000000	0.000000	40.000000	40.000000	0.000000	0.000000	0.000000	0.000000	5.000000
0.693878	40.816327	40.816327	22.500000	22.500000	60.000000	60.000000	0.000000	0.000000	40.000000	40.000000	0.000000	0.000000	0.000000	0.000000	5.000000
0.734694	42.040816	42.040816	22.500000	22.500000	60.000000	60.000000	0.000000	0.000000	40.000000	40.000000	0.000000	0.000000	0.000000	0.000000	5.000000
0.775510	43.265306	43.265306	22.500000	22.500000	60.000000	60.000000	0.000000	0.000000	40.000000	40.000000	0.000000	0.000000	0.000000	0.000000	5.000000
0.816327	44.489796	44.489796	22.500000	22.500000	60.000000	60.000000	0.000000	0.000000	40.000000	40.000000	0.000000	0.000000	0.000000	0.000000	5.000000
0.857143	45.714286	45.714286	22.500000	22.500000	60.000000	60.000000	0.000000	0.000000	40.000000	40.000000	0.000000	0.000000	0.000000	0.000000	5.000000
0.897959	46.938776	46.938776	22.500000	22.500000	60.000000	60.000000	0.000000	0.000000	40.000000	40.000000	0.000000	0.000000	0.000000	0.000000	5.000000
0.938776	48.163265	48.163265	22.500000	22.500000	60.000000	60.000000	0.000000	0.000000	40.000000	40.000000	0.000000	0.000000	0.000000	0.000000	5.000000
0.979592	49.387755	49.387755	22.500000	22.500000	60.000000	60.000000	0.000000	0.000000	40.000000	40.000000	0.000000	0.000000	0.000000	0.000000	5.000000
1.020408	50.612245	50.612245	22.500000	22.500000	60.000000	60.000000	0.000000	0.000000	40.000000	40.000000	0.000000	0.000000	0.000000	0.000000	5.000000
1.061224	51.836735	51.836735	22.500000	22.500000	60.000000	60.000000	0.000000	0.000000	40.000000	40.000000	0.000000	0.000000	0.000000	0.000000	5.000000
1.102041	53.061224	53.061224	22.500000	22.500000	60.000000	60.000000	0.000000	0.000000	40.000000	40.000000	0.000000	0.000000	0.000000	0.000000	5.000000
1.142857	54.285714	54.285714	22.500000	22.500000	60.000000	60.000000	0.000000	0.000000	40.000000	40.000000	0.000000	0.000000	0.000000	0.000000	5.000000
1.183673	55.510204	55.510204	22.500000	22.500000	60.000000	60.000000	0.000000	0.000000	40.000000	40.000000	0.000000	0.000000	0.000000	0.000000	5.000000
1.224490	56.734694	56.734694	22.500000	22.500000	60.000000	60.000000	0.000000	0.000000	40.000000	40.000000	0.000000	0.000000	0.000000	0.000000	5.000000
1.265306	57.959184	57.959184	22.500000	22.500000	60.000000	60.000000	0.000000	0.000000	40.000000	40.000000	0.000000	0.000000	0.000000	0.000000	5.000000
1.306122	59.183673	59.183673	22.500000	22.500000	60.000000	60.000000	0.000000	0.000000	40.000000	40.000000	0.000000	0.000000	0.000000	0.000000	5.000000
1.346939	60.408163	60.408163	22.500000	22.500000	60.000000	60.000000	0.000000	0.000000	40.000000	40.000000	0.000000	0.000000	0.000000	0.000000	5.000000
1.387755	61.632653	61.632653	22.500000	22.500000	60.000000	60.000000	0.000000	0.000000	40.000000	40.000000	0.000000	0.000000	0.000000	0.000000	5.000000
1.428571	62.857143	62.857143	22.500000	22.500000	60.000000	60.000000	0.000000	0.000000	40.000000	40.000000	0.000000	0.000000	0.000000	0.000000	5.000000
1.469388	64.081633	64.081633	22.500000	22.500000	60.000000	60.000000	0.000000	0.000000	40.000000	40.000000	0.000000	0.000000	0.000000	0.000000	5.000000
1.510204	65.306122	65.306122	22.500000	22.500000	60.000000	60.000000	0.000000	0.000000	40.000000	40.000000	0.000000	0.000000	0.000000	0.000000	5.000000
1.551020	66.530612	66.530612	22.500000	22.500000	60.000000	60.000000	0.000000	0.000000	40.000000	40.000000	0.000000	0.000000	0.000000	0.000000	5.000000
1.591837	67.755102	67.755102	22.500000	22.500000	60.000000	60.000000	0.000000	0.000000	40.000000	40.000000	0.000000	0.000000	0.000000	0.000000	5.000000
1.632653	68.979592	68.979592	22.500000	22.500000	60.000000	60.000000	0.000000	0.000000	40.000000	40.000000	0.000000	0.000000	0.000000	0.000000	5.000000
1.673469	70.204082	70.204082	22.500000	22.500000	60.000000	60.000000	0.000000	0.000000	40.000000	40.000000	0.000000	0.000000	0.000000	0.000000	5.000000
1.714286	71.428571	71.428571	22.500000	22.500000	60.000000	60.000000	0.000000	0.000000	40.000000	40.000000	0.000000	0.000000	0.000000	0.000000	5.000000
1.755102	72.653061	72.653061	22.500000	22.500000	60.000000	60.000000	0.000000	0.000000	40.000000	40.000000	0.000000	0.000000	0.000000	0.000000	5.000000
1.795918	73.877551	73.877551	22.500000	22.500000	60.000000	60.000000	0.000000	0.000000	40.000000	40.000000	0.000000	0.000000	0.000000	0.000000	5.000000
1.836735	75.102041	75.102041	22.500000	22.500000	60.000000	60.000000	0.000000	0.000000	40.000000	40.000000	0.000000	0.000000	0.000000	0.000000	5.000000
1.877551	76.326531	76.326531	22.500000	22.500000	60.000000	60.000000	0.000000	0.000000	40.000000	40.000000	0.000000	0.000000	0.000000	0.000000	5.000000
1.918367	77.551020	77.551020	22.500000	22.500000	60.000000	60.000000	0.000000	0.000000	40.000000	40.000000	0.000000	0.000000	0.000000	0.000000	5.000000
1.959184	78.775510	78.775510	22.500000	22.500000	60.000000	60.000000	0.000000	0.000000	40.000000	40.000000	0.000000	0.000000	0.000000	0.000000	5.000000
2.000000	80.000000	80.000000	22.500000	22.500000	60.000000	60.000000	0.000000	0.000000	40.000000	40.000000	0.000000	0.000000	0.000000	0.000000	5.000000
